<svg xmlns="http://www.w3.org/2000/svg" viewBox="0 0 90 60"><path d="M2.9 2.9h25v25h-25z" style="fill:#7e3d97;fill-opacity:1;stroke-width:.17016"/><path d="M0 0v30l3-3V3h24l3-3z" style="fill:#955aa4;fill-opacity:1;stroke-width:.264583"/><path d="M30 0v30H0l3-3h24V3Z" style="fill:#532963;fill-opacity:1;stroke-width:.264583"/><path d="M0 30v-1h1v-1h1v-1h1v1H2v1H1v1zM27 3V2h1V1h1V0h1v1h-1v1h-1v1z" style="fill:#4a2459;fill-opacity:1;stroke-width:.264583"/><path d="M2.9 2.9h25v25h-25z" style="fill:#7e3d97;fill-opacity:1;stroke-width:.17016" transform="translate(30)"/><path d="M0 0v30l3-3V3h24l3-3z" style="fill:#955aa4;fill-opacity:1;stroke-width:.264583" transform="translate(30)"/><path d="M30 0v30H0l3-3h24V3Z" style="fill:#532963;fill-opacity:1;stroke-width:.264583" transform="translate(30)"/><path d="M0 30v-1h1v-1h1v-1h1v1H2v1H1v1zM27 3V2h1V1h1V0h1v1h-1v1h-1v1z" style="fill:#4a2459;fill-opacity:1;stroke-width:.264583" transform="translate(30)"/><path d="M2.9 2.9h25v25h-25z" style="fill:#7e3d97;fill-opacity:1;stroke-width:.17016" transform="translate(30 30)"/><path d="M0 0v30l3-3V3h24l3-3z" style="fill:#955aa4;fill-opacity:1;stroke-width:.264583" transform="translate(30 30)"/><path d="M30 0v30H0l3-3h24V3Z" style="fill:#532963;fill-opacity:1;stroke-width:.264583" transform="translate(30 30)"/><path d="M0 30v-1h1v-1h1v-1h1v1H2v1H1v1zM27 3V2h1V1h1V0h1v1h-1v1h-1v1z" style="fill:#4a2459;fill-opacity:1;stroke-width:.264583" transform="translate(30 30)"/><path d="M2.9 2.9h25v25h-25z" style="fill:#7e3d97;fill-opacity:1;stroke-width:.17016" transform="translate(60 30)"/><path d="M0 0v30l3-3V3h24l3-3z" style="fill:#955aa4;fill-opacity:1;stroke-width:.264583" transform="translate(60 30)"/><path d="M30 0v30H0l3-3h24V3Z" style="fill:#532963;fill-opacity:1;stroke-width:.264583" transform="translate(60 30)"/><path d="M0 30v-1h1v-1h1v-1h1v1H2v1H1v1zM27 3V2h1V1h1V0h1v1h-1v1h-1v1z" style="fill:#4a2459;fill-opacity:1;stroke-width:.264583" transform="translate(60 30)"/></svg>